<?xml version="1.0" standalone="no"?><!DOCTYPE svg PUBLIC "-//W3C//DTD SVG 1.1//EN" "http://www.w3.org/Graphics/SVG/1.1/DTD/svg11.dtd"><svg t="1580909719942" class="icon" viewBox="0 0 1024 1024" version="1.1" xmlns="http://www.w3.org/2000/svg" p-id="10200" xmlns:xlink="http://www.w3.org/1999/xlink" width="16" height="16"><defs><style type="text/css"></style></defs><path d="M952.443 821.344L561.946 144.983c-22.198-38.448-77.694-38.448-99.893 0L71.557 821.344c-22.198 38.449 5.55 86.51 49.946 86.51h780.994c44.397 0 72.145-48.061 49.946-86.51zM483.427 368.375c0-19.036 9.497-29.426 28.574-31.171 17.29 1.745 26.828 12.135 28.573 31.171v288.332c-1.745 20.781-11.283 31.172-28.573 31.172-19.076 0-28.574-10.391-28.574-31.172V368.375zM512 815.16c-22.526 0-33.769-10.39-33.769-31.171 1.705-19.036 12.988-30.278 33.769-33.769 19.035 3.49 30.278 14.733 33.768 33.769-1.745 20.781-12.987 31.171-33.768 31.171z" fill="#fa8f37" p-id="10201"></path></svg>