<?xml version="1.0" standalone="no"?><!DOCTYPE svg PUBLIC "-//W3C//DTD SVG 1.1//EN" "http://www.w3.org/Graphics/SVG/1.1/DTD/svg11.dtd"><svg t="1576210450520" class="icon" viewBox="0 0 1024 1024" version="1.1" xmlns="http://www.w3.org/2000/svg" p-id="10854" xmlns:xlink="http://www.w3.org/1999/xlink" width="200" height="200"><defs><style type="text/css"></style></defs><path d="M512 868.04c-3.36 0-6.71-0.81-9.76-2.44-4.11-2.19-101.77-54.63-200.96-140.63C165.73 607.45 97 489.31 97 373.83c0-120.14 97.74-217.87 217.88-217.87 100.98 0 167.42 63.62 197.13 99.95 29.71-36.33 96.14-99.95 197.13-99.95C829.26 155.96 927 253.7 927 373.83c0 115.48-68.73 233.62-204.28 351.14-99.19 85.99-196.85 138.44-200.96 140.63-3.05 1.63-6.4 2.44-9.76 2.44zM314.88 197.46c-97.25 0-176.38 79.12-176.38 176.37 0 225.47 313.68 415.51 373.49 449.69 59.82-34.21 373.51-224.45 373.51-449.69 0-97.25-79.12-176.37-176.38-176.37-114.51 0-178.74 103.37-179.37 104.41a20.792 20.792 0 0 1-17.74 9.98h-0.05c-7.26-0.02-13.99-3.81-17.74-10.02-0.61-1-64.84-104.37-179.34-104.37z" p-id="10855"></path></svg>