<?xml version="1.0" standalone="no"?><!DOCTYPE svg PUBLIC "-//W3C//DTD SVG 1.1//EN" "http://www.w3.org/Graphics/SVG/1.1/DTD/svg11.dtd"><svg t="1576210175889" class="icon" viewBox="0 0 1024 1024" version="1.1" xmlns="http://www.w3.org/2000/svg" p-id="2413" xmlns:xlink="http://www.w3.org/1999/xlink" width="200" height="200"><defs><style type="text/css"></style></defs><path d="M308.3264 425.9328l103.99744-173.2608 169.94304 339.89632 95.232-166.63552h237.52704c3.87072-27.40224 6.57408-55.16288 6.57408-83.59936C921.6 209.79712 814.1312 102.4 681.66656 102.4A239.18592 239.18592 0 0 0 512 172.6976 239.18592 239.18592 0 0 0 342.33344 102.4C209.8688 102.4 102.4 209.79712 102.4 342.33344c0 28.43648 2.70336 56.19712 6.6048 83.59936H308.3264z" p-id="2414" fill="#08af52"></path><path d="M717.09696 494.20288l-138.87488 242.9952-171.35616-342.76352-59.87328 99.76832H122.8288c29.57312 112.00512 90.24512 212.36736 173.89568 291.47136C357.82656 843.42784 430.7968 889.73312 512 921.6c81.2032-31.86688 154.17344-78.17216 215.26528-135.92576 83.6608-79.104 144.36352-179.46624 173.89568-291.47136H717.09696z" p-id="2415" fill="#08af52"></path></svg>