<?xml version="1.0" standalone="no"?><!DOCTYPE svg PUBLIC "-//W3C//DTD SVG 1.1//EN" "http://www.w3.org/Graphics/SVG/1.1/DTD/svg11.dtd"><svg t="1580837440633" class="icon" viewBox="0 0 1024 1024" version="1.1" xmlns="http://www.w3.org/2000/svg" p-id="786" width="16" height="16" xmlns:xlink="http://www.w3.org/1999/xlink"><defs><style type="text/css"></style></defs><path d="M512.465455 0.116364C230.609455 0.116364 1.210182 229.492364 1.210182 511.371636S230.586182 1022.650182 512.465455 1022.650182s511.278545-229.376 511.278545-511.278546C1023.720727 229.492364 794.344727 0.116364 512.465455 0.116364z m286.091636 413.230545L466.013091 754.222545a42.519273 42.519273 0 0 1-30.254546 12.753455h-0.232727a42.589091 42.589091 0 0 1-30.114909-12.427636l-178.711273-178.827637a42.565818 42.565818 0 0 1 0-60.253091 42.565818 42.565818 0 0 1 60.253091 0l148.363637 148.247273 302.312727-310.062545a42.682182 42.682182 0 0 1 60.253091-0.698182 42.821818 42.821818 0 0 1 0.674909 60.392727z m0 0" p-id="787" fill="#2eb039"></path></svg>