<?xml version="1.0" standalone="no"?><!DOCTYPE svg PUBLIC "-//W3C//DTD SVG 1.1//EN" "http://www.w3.org/Graphics/SVG/1.1/DTD/svg11.dtd"><svg t="1576211604118" class="icon" viewBox="0 0 1024 1024" version="1.1" xmlns="http://www.w3.org/2000/svg" p-id="10987" xmlns:xlink="http://www.w3.org/1999/xlink" width="200" height="200"><defs><style type="text/css"></style></defs><path d="M930.552 150.642c-103.64-103.64-271.674-103.64-375.316 0l-43.304 43.304-43.304-43.304c-103.64-103.64-271.674-103.64-375.316 0s-103.64 271.674 0 375.316l418.62 418.62 418.62-418.62c103.642-103.642 103.64-271.676 0-375.316z" fill="#FA004B" p-id="10988"></path><path d="M608.426 692.11h-192.988c-26.646 0-48.248-21.6-48.248-48.248 0-26.646 21.6-48.248 48.248-48.248h192.988c26.646 0 48.248 21.6 48.248 48.248-0.002 26.648-21.602 48.248-48.248 48.248z" fill="#FAEDD6" p-id="10989"></path><path d="M415.548 628.186h31.43v31.43h-31.43zM576.89 628.186h31.43v31.43h-31.43zM463.742 628.186h96.386v31.43h-96.386z" fill="#36C9A3" p-id="10990" data-spm-anchor-id="a313x.7781069.0.i21" class="selected"></path><path d="M930.072 305.496h-32.164c0-71.242-57.006-128.02-128.248-128.02V145.312c88.006 0 160.412 72.178 160.412 160.184z" fill="#FFFFFF" p-id="10991"></path><path d="M941.666 139.53c-109.606-109.604-287.936-109.604-397.542 0l-32.19 32.192-32.194-32.192c-53.094-53.094-123.684-82.332-198.77-82.332-75.08 0-145.68 29.242-198.77 82.332-109.602 109.602-109.602 287.936 0 397.538l429.734 429.734 429.734-429.734C994.762 483.978 1024 413.384 1024 338.3c-0.002-75.088-29.242-145.678-82.334-198.77z m-22.228 375.314L511.932 922.354 104.424 514.844c-97.348-97.348-97.348-255.744 0-353.09 47.156-47.156 109.856-73.128 176.544-73.128s129.388 25.972 176.546 73.128l37.656 37.656v131.736l55.906 33.324-128.132 32.098 98.224 59.226-25.994 38.52v85.586H415.44c-35.268 0-63.96 28.694-63.96 63.96 0 35.268 28.692 63.962 63.96 63.962h79.732v41.884h31.43v-41.884h81.828c35.268 0 63.96-28.694 63.96-63.962s-28.692-63.96-63.96-63.96h-81.828v-75.974l39.12-57.972-61.812-37.27 128.656-32.23-105.964-63.166v-111.784l39.75-39.75c97.344-97.344 255.746-97.348 353.09 0 47.158 47.158 73.128 109.856 73.128 176.546s-25.974 129.388-73.132 176.544z m-504 161.552c-17.938 0-32.53-14.594-32.53-32.532s14.594-32.53 32.53-32.53h192.99c17.938 0 32.53 14.594 32.53 32.53 0 17.938-14.594 32.532-32.53 32.532h-192.99z" fill="#ffffff" p-id="10992" data-spm-anchor-id="a313x.7781069.0.i17" class="selected"></path><path d="M495.172 766.478h31.43v64.956h-31.43zM495.172 846.102h33.526v31.43h-33.526z" fill="#232323" p-id="10993"></path></svg>